# xmcd
#
# Track frame offsets: 
#        150
#        10805
#        24155
#        43355
#        56800
#        68225
#        82610
#        93585
#        105465
#        116535
#        128737
#        142022
#        155337
#        169337
#        182205
#        198917
#        214147
#        229735
#
# Disc length: 3306 seconds
#
# Revision: 3
# Processed by: cddbd v1.5.2PL0 Copyright (c) Steve Scherf et al.
# Submitted via: ExactAudioCopy v0.99pb4
#
DISCID=f30ce812
DTITLE=Various Artist - Ultimate Country Dance Party
DYEAR=1998
DGENRE=Country
TTITLE0=Alan Jackson - Chattahoochee
TTITLE1=Vince Gill - One More Last Chance
TTITLE2=Shania Twain - Whose Bed Have Your Boots Been Under
TTITLE3=Tracy Byrd - Watermelon Crawl
TTITLE4=Mark Chesnutt - Going Through The Big D
TTITLE5=Brooks and Dunn - Boot Scootin' Boogie
TTITLE6=George Strait - She Lays It All On The Line
TTITLE7=Lorrie Morgan - What Part Of No
TTITLE8=BR5-49 - Cherokee Boogie
TTITLE9=Lonestar - No News
TTITLE10=Clint Black - A Better Man
TTITLE11=Ricochet - Daddy's Money
TTITLE12=Pam Tillis - Cleopatra, Queen Of Denial
TTITLE13=Trace Atkins - (This Ain't) No Thinkin' Thing
TTITLE14=The Tractors - Baby Likes To Rock It
TTITLE15=Lee Roy Parnell - If The House Is Rockin'
TTITLE16=Patty Loveless - Blame It On Your Heart
TTITLE17=Diamond Rio - How Your Love Makes Me Feel
EXTD=YEAR: 1998
EXTT0=
EXTT1=
EXTT2=
EXTT3=
EXTT4=
EXTT5=
EXTT6=
EXTT7=
EXTT8=
EXTT9=
EXTT10=
EXTT11=
EXTT12=
EXTT13=
EXTT14=
EXTT15=
EXTT16=
EXTT17=
PLAYORDER=
